<svg width="133" height="20" viewBox="0 0 133 20" fill="none" xmlns="http://www.w3.org/2000/svg">
<path d="M3.28917 19.802C2.20599 19.802 1.387 19.5248 0.832199 18.9703C0.2774 18.4158 0 17.5974 0 16.5149V7.86139C0 7.0429 0.211352 6.40264 0.634057 5.94059C1.06997 5.47855 1.671 5.24753 2.43716 5.24753C3.20331 5.24753 3.79773 5.47855 4.22044 5.94059C4.65635 6.40264 4.87431 7.0429 4.87431 7.86139V15.4455H10.2836C11.0498 15.4455 11.6376 15.637 12.0471 16.0198C12.4698 16.3894 12.6811 16.9241 12.6811 17.6238C12.6811 18.3102 12.4698 18.8449 12.0471 19.2277C11.6376 19.6106 11.0498 19.802 10.2836 19.802H3.28917Z" fill="white"/>
<path d="M17.3952 19.802C16.312 19.802 15.4931 19.5248 14.9383 18.9703C14.3835 18.4158 14.1061 17.5974 14.1061 16.5149V8.63366C14.1061 7.55116 14.3835 6.73267 14.9383 6.17822C15.4931 5.62376 16.312 5.34653 17.3952 5.34653H24.5482C25.2615 5.34653 25.8097 5.52475 26.1928 5.88119C26.589 6.23762 26.7872 6.73927 26.7872 7.38614C26.7872 8.033 26.589 8.53465 26.1928 8.89109C25.8097 9.24752 25.2615 9.42574 24.5482 9.42574H18.8615V10.5941H24.5482C25.2351 10.5941 25.7635 10.7657 26.1333 11.1089C26.5032 11.4389 26.6881 11.9142 26.6881 12.5347C26.6881 13.1551 26.5032 13.637 26.1333 13.9802C25.7635 14.3102 25.2351 14.4752 24.5482 14.4752H18.8615V15.7228H24.5482C25.2615 15.7228 25.8097 15.901 26.1928 16.2574C26.589 16.6139 26.7872 17.1155 26.7872 17.7624C26.7872 18.4092 26.589 18.9109 26.1928 19.2673C25.8097 19.6238 25.2615 19.802 24.5482 19.802H17.3952Z" fill="white"/>
<path d="M47.3671 19.901C46.6009 19.901 46.0065 19.6766 45.5838 19.2277C45.1611 18.7657 44.9498 18.1254 44.9498 17.3069V8.63366C44.9498 7.55116 45.2205 6.73267 45.7621 6.17822C46.3169 5.62376 47.1293 5.34653 48.1993 5.34653H51.3894C53.8332 5.34653 55.6825 5.82838 56.9374 6.79208C58.1923 7.74257 58.8197 9.14192 58.8197 10.9901C58.8197 12.8383 58.1923 14.2442 56.9374 15.2079C55.6825 16.1584 53.8332 16.6337 51.3894 16.6337H49.7844V17.3069C49.7844 18.1254 49.5731 18.7657 49.1504 19.2277C48.7277 19.6766 48.1332 19.901 47.3671 19.901ZM51.4488 12.6337C52.3867 12.6337 53.0736 12.5017 53.5095 12.2376C53.9586 11.9736 54.1832 11.5644 54.1832 11.0099C54.1832 10.4554 53.9586 10.0462 53.5095 9.78218C53.0736 9.51815 52.3867 9.38614 51.4488 9.38614H49.7844V12.6337H51.4488Z" fill="white"/>
<path d="M66.4196 20C64.3457 20 62.754 19.7756 61.6444 19.3267C60.4819 18.8383 59.9007 18.132 59.9007 17.2079C59.9007 16.6139 60.0988 16.1188 60.4951 15.7228C60.8914 15.3135 61.3934 15.1089 62.001 15.1089C62.2256 15.1089 62.4633 15.1353 62.7143 15.1881C62.9785 15.2409 63.3154 15.3267 63.7249 15.4455C64.808 15.7624 65.7855 15.9208 66.6574 15.9208C67.2122 15.9208 67.6085 15.8746 67.8462 15.7822C68.084 15.6766 68.2029 15.5116 68.2029 15.2871C68.2029 15.0231 68.018 14.8251 67.6481 14.6931C67.2782 14.5611 66.5979 14.4488 65.6072 14.3564C63.5465 14.1584 62.0472 13.703 61.1094 12.9901C60.1715 12.264 59.7026 11.2013 59.7026 9.80198C59.7026 8.31023 60.264 7.16172 61.3868 6.35644C62.5228 5.55116 64.1476 5.14852 66.2611 5.14852C67.0933 5.14852 67.9255 5.20792 68.7577 5.32673C69.5899 5.44554 70.3428 5.61056 71.0165 5.82178C71.5845 6.0066 72.0204 6.28383 72.3242 6.65347C72.6281 7.0099 72.78 7.43894 72.78 7.94059C72.78 8.53465 72.5818 9.0363 72.1856 9.44555C71.7893 9.84158 71.2873 10.0396 70.6797 10.0396C70.4551 10.0396 70.2107 10.0132 69.9465 9.9604C69.6955 9.90759 69.3653 9.82178 68.9558 9.70297C68.3614 9.53135 67.8396 9.41254 67.3905 9.34653C66.9414 9.26733 66.4856 9.22772 66.0233 9.22772C65.4685 9.22772 65.0722 9.28053 64.8344 9.38614C64.5967 9.47855 64.4778 9.63696 64.4778 9.86139C64.4778 10.0462 64.5505 10.198 64.6958 10.3168C64.8543 10.4224 65.1119 10.5149 65.4685 10.5941C65.8384 10.6601 66.3734 10.7261 67.0735 10.7921C69.1341 10.9901 70.6334 11.4521 71.5713 12.1782C72.5092 12.8911 72.9781 13.9472 72.9781 15.3465C72.9781 16.8383 72.4101 17.9868 71.2741 18.7921C70.1513 19.5974 68.5331 20 66.4196 20Z" fill="white"/>
<path d="M81.0707 19.901C80.3046 19.901 79.7035 19.67 79.2676 19.2079C78.8449 18.7459 78.6335 18.1056 78.6335 17.2871V9.70297H76.1369C75.3708 9.70297 74.7764 9.51155 74.3537 9.12871C73.9442 8.74587 73.7394 8.21122 73.7394 7.52475C73.7394 6.82508 73.9442 6.29043 74.3537 5.92079C74.7764 5.53795 75.3708 5.34653 76.1369 5.34653H86.0045C86.7706 5.34653 87.3584 5.53795 87.7679 5.92079C88.1906 6.30363 88.402 6.83828 88.402 7.52475C88.402 8.21122 88.1906 8.74587 87.7679 9.12871C87.3584 9.51155 86.7706 9.70297 86.0045 9.70297H83.5079V17.2871C83.5079 18.1056 83.2899 18.7459 82.854 19.2079C82.4313 19.67 81.8369 19.901 81.0707 19.901Z" fill="white"/>
<path d="M101.887 16.5545C102.058 16.8977 102.144 17.2607 102.144 17.6436C102.144 18.264 101.92 18.7987 101.471 19.2475C101.035 19.6832 100.506 19.901 99.8854 19.901C99.4363 19.901 99.0268 19.7822 98.6569 19.5446C98.2871 19.3069 98.0031 18.9901 97.8049 18.5941L97.2105 17.4257H91.4247L90.8303 18.5941C90.6322 18.9901 90.3482 19.3069 89.9783 19.5446C89.6084 19.7822 89.1989 19.901 88.7498 19.901C88.129 19.901 87.594 19.6832 87.1449 19.2475C86.7089 18.7987 86.491 18.264 86.491 17.6436C86.491 17.2607 86.5769 16.8977 86.7486 16.5545L91.7814 6.67327C92.0192 6.19802 92.356 5.84158 92.7919 5.60396C93.2411 5.36634 93.7496 5.24753 94.3176 5.24753C94.8856 5.24753 95.3876 5.36634 95.8235 5.60396C96.2726 5.84158 96.6161 6.19802 96.8539 6.67327L101.887 16.5545ZM96.0415 13.8614L94.3374 10.3564H94.2978L92.5938 13.8614H96.0415Z" fill="white"/>
<path d="M116.538 15.8416C117.146 16.2376 117.45 16.7789 117.45 17.4653C117.45 18.1386 117.225 18.7129 116.776 19.1881C116.34 19.6634 115.779 19.901 115.092 19.901C114.564 19.901 114.015 19.6964 113.447 19.2871L108.454 15.6436H108.415V17.3069C108.415 18.1254 108.203 18.7657 107.78 19.2277C107.358 19.6766 106.763 19.901 105.997 19.901C105.231 19.901 104.637 19.6766 104.214 19.2277C103.791 18.7657 103.58 18.1254 103.58 17.3069V8.63366C103.58 7.55116 103.851 6.73267 104.392 6.17822C104.947 5.62376 105.759 5.34653 106.829 5.34653H110.416C112.727 5.34653 114.478 5.78218 115.667 6.65347C116.855 7.52475 117.45 8.80528 117.45 10.4951C117.45 12.5281 116.604 13.9604 114.914 14.7921L116.538 15.8416ZM108.415 9.30693V12.2772H110.277C111.136 12.2772 111.77 12.1584 112.179 11.9208C112.602 11.67 112.813 11.2937 112.813 10.7921C112.813 10.2904 112.602 9.92079 112.179 9.68317C111.77 9.43234 111.136 9.30693 110.277 9.30693H108.415Z" fill="white"/>
<path d="M125.537 19.901C124.771 19.901 124.17 19.67 123.734 19.2079C123.311 18.7459 123.1 18.1056 123.1 17.2871V9.70297H120.603C119.837 9.70297 119.242 9.51155 118.82 9.12871C118.41 8.74587 118.205 8.21122 118.205 7.52475C118.205 6.82508 118.41 6.29043 118.82 5.92079C119.242 5.53795 119.837 5.34653 120.603 5.34653H130.47C131.237 5.34653 131.824 5.53795 132.234 5.92079C132.657 6.30363 132.868 6.83828 132.868 7.52475C132.868 8.21122 132.657 8.74587 132.234 9.12871C131.824 9.51155 131.237 9.70297 130.47 9.70297H127.974V17.2871C127.974 18.1056 127.756 18.7459 127.32 19.2079C126.897 19.67 126.303 19.901 125.537 19.901Z" fill="white"/>
<path d="M35.9195 20C32.7006 15.1063 32.7818 11.5842 35.9195 11.5842C39.0572 11.5842 38.9737 15.0781 35.9195 20Z" fill="#FF488B"/>
<path d="M35.9006 16.5347C34.0141 13.656 34.0617 11.5842 35.9006 11.5842C37.7395 11.5842 37.6906 13.6394 35.9006 16.5347Z" fill="#42FFD2"/>
<path d="M43.4329 11.3069C43.6046 11.6502 43.6905 12.0132 43.6905 12.396C43.6905 13.0165 43.4659 13.5512 43.0168 14C42.5809 14.4356 42.0525 14.6535 41.4316 14.6535C40.9825 14.6535 40.573 14.5347 40.2032 14.297C39.8333 14.0594 39.5493 13.7426 39.3511 13.3465L38.0688 10.8417C37.1488 9.04455 34.5789 9.04455 33.6589 10.8417L32.3765 13.3465C32.1784 13.7426 31.8944 14.0594 31.5245 14.297C31.1546 14.5347 30.7451 14.6535 30.296 14.6535C29.6752 14.6535 29.1402 14.4356 28.6911 14C28.2551 13.5512 28.0372 13.0165 28.0372 12.396C28.0372 12.0132 28.1231 11.6502 28.2948 11.3069L33.3276 1.42574C33.5654 0.950494 33.9022 0.594059 34.3381 0.356436C34.7873 0.118812 35.2958 0 35.8638 0C36.4318 0 36.9338 0.118812 37.3697 0.356436C37.8188 0.594059 38.1623 0.950494 38.4001 1.42574L43.4329 11.3069Z" fill="white"/>
</svg>
